<?xml version="1.0" encoding="utf-8"?>
<!-- Generator: Adobe Illustrator 12.0.1, SVG Export Plug-In  -->
<!DOCTYPE svg PUBLIC "-//W3C//DTD SVG 1.1//EN" "http://www.w3.org/Graphics/SVG/1.1/DTD/svg11.dtd" [
	<!ENTITY ns_flows "http://ns.adobe.com/Flows/1.0/">
	<!ENTITY ns_svg "http://www.w3.org/2000/svg">
	<!ENTITY ns_xlink "http://www.w3.org/1999/xlink">
]>
<svg  version="1.1" xmlns="&ns_svg;" xmlns:xlink="&ns_xlink;" xmlns:a="http://ns.adobe.com/AdobeSVGViewerExtensions/3.0/"
	 width="288" height="288" viewBox="0 0 288 288" enable-background="new 0 0 288 288" xml:space="preserve">
<defs>
</defs>
<g>
	<path fill="#FFFFFF" d="M144.288,19.039c28.125,0,40.179,21.429,40.179,21.429l89.461,163.121c0,0,15.535,25.979-7.77,51.425
		c-12.991,12.988-31.872,13.93-31.872,13.93H56.255c0,0-19.872,1.104-34.999-14.021c-24.871-24.871-4.194-54.814-4.194-54.814
		l86.781-157.498C103.844,42.609,116.164,19.039,144.288,19.039"/>
	<path fill="#FFFFFF" d="M144.288,19.039c28.125,0,40.179,21.429,40.179,21.429l89.461,163.121c0,0,15.535,25.979-7.77,51.425
		c-12.991,12.988-31.872,13.93-31.872,13.93H56.255c0,0-19.872,1.104-34.999-14.021c-24.871-24.871-4.194-54.814-4.194-54.814
		l86.781-157.498C103.844,42.609,116.164,19.039,144.288,19.039"/>
	<g>
		<path fill="#010101" d="M102.635,41.978c0,0-86.69,157.332-86.741,157.425c-0.515,0.769-8.189,12.521-8.189,27.297
			c0,9.215,2.993,19.593,12.588,29.188c15.381,15.38,35.202,14.465,36.039,14.419l177.956,0.002
			c0.86-0.041,19.626-1.121,32.837-14.329c23.758-25.939,8.136-52.821,7.976-53.09L185.663,39.812
			c-0.132-0.234-12.783-22.137-41.375-22.137C115.668,17.675,102.762,41.734,102.635,41.978z M22.221,253.957
			c-23.757-23.758-4.852-51.89-4.035-53.075l0.039-0.056l86.814-157.559c0.133-0.253,12.318-22.864,39.25-22.864
			c26.952,0,38.873,20.527,38.99,20.734l89.453,163.107c0.636,1.069,14.735,25.481-7.579,49.848
			c-12.409,12.404-30.751,13.479-30.935,13.488l-177.963-0.002C55.987,267.592,36.714,268.45,22.221,253.957z"/>
	</g>
	<path fill="#FEDF00" d="M144.288,51.984c12.59,0,17.947,8.572,17.947,8.572l83.031,147.586c0,0,6.87,13.659-3.752,24.281
		c-8.213,8.217-16.067,7.414-16.067,7.414H64.468c0,0-7.504,1.772-17.409-8.128c-9.107-11.787-1.874-24.107-1.874-24.107
		L125.808,61.09C125.808,61.09,131.702,51.984,144.288,51.984"/>
	<g>
		<path fill="#010101" d="M124.663,60.349L43.99,206.945c-0.058,0.098-7.57,13.226,1.99,25.599l0.053,0.069l0.062,0.062
			c9.753,9.749,17.362,8.737,18.467,8.527c0.188,0,160.762,0,160.844,0c0.84,0.068,8.788,0.476,17.073-7.813
			c11.189-11.189,4.079-25.714,4.006-25.859L163.424,59.888c-0.267-0.43-5.941-9.268-19.136-9.268
			C131.111,50.62,124.92,59.951,124.663,60.349z M43.8,218.509c0-5.706,2.397-9.932,2.563-10.218l80.64-146.543
			c0.175-0.26,5.636-8.399,17.285-8.399c11.628,0,16.587,7.611,16.793,7.935l82.997,147.528c0.229,0.465,6.249,12.87-3.528,22.647
			c-7.603,7.606-14.673,7.049-14.971,7.021l-0.063-0.006l-161.194-0.001l-0.155,0.034c-0.069,0.015-6.953,1.369-16.068-7.693
			C44.817,226.537,43.8,222.211,43.8,218.509z"/>
	</g>
	<polygon fill="#010101" points="113.352,68.592 123.261,100.734 134.112,68.728 154.736,68.728 165.852,100.194 175.493,68.457 
		199.6,68.457 179.511,130.866 154.871,130.866 144.423,100.734 134.244,130.866 109.737,130.866 89.65,68.592 	"/>
	<g>
		<path fill="#010101" d="M175.324,68.229c0,0-9.103,29.966-9.489,31.236c-0.442-1.252-10.938-30.966-10.938-30.966h-20.948
			c0,0-10.245,30.22-10.678,31.496c-0.397-1.288-9.752-31.632-9.752-31.632H89.338l20.234,62.729h24.835
			c0,0,9.611-28.451,10.019-29.657c0.417,1.203,10.283,29.657,10.283,29.657h24.968l20.235-62.864H175.324z M199.287,68.685
			c-0.188,0.587-19.842,61.642-19.942,61.954c-0.324,0-23.995,0-24.312,0c-0.105-0.302-10.613-30.606-10.613-30.606
			s-10.236,30.301-10.339,30.606c-0.32,0-23.853,0-24.178,0c-0.101-0.312-19.751-61.232-19.941-61.819c0.604,0,22.896,0,23.222,0
			c0.098,0.317,10.067,32.653,10.067,32.653s10.921-32.212,11.024-32.518c0.318,0,19.986,0,20.3,0
			c0.106,0.3,11.293,31.968,11.293,31.968s9.696-31.919,9.794-32.238C175.99,68.685,198.684,68.685,199.287,68.685z"/>
	</g>
	<polygon fill="#010101" points="93.534,120.554 144.423,151.759 195.717,120.688 206.563,140.241 156.075,170.91 156.207,240.818 
		132.904,240.818 132.904,170.91 82.684,140.643 	"/>
	<g>
		<path fill="#010101" d="M82.38,140.726c0,0,50.078,30.181,50.296,30.313c0,0.256,0,70.007,0,70.007h23.758
			c0,0-0.131-69.753-0.132-70.008c0.218-0.133,50.564-30.716,50.564-30.716l-11.066-19.951c0,0-51.141,30.978-51.377,31.121
			c-0.235-0.144-50.975-31.258-50.975-31.258L82.38,140.726z M93.62,120.873c0.406,0.249,50.802,31.152,50.802,31.152
			s50.81-30.777,51.211-31.02c0.222,0.4,10.419,18.784,10.625,19.155c-0.371,0.226-50.41,30.622-50.41,30.622
			s0.131,69.356,0.132,69.809c-0.442,0-22.406,0-22.848,0c0-0.451,0-69.81,0-69.81s-49.776-29.999-50.145-30.222
			C83.187,140.189,93.399,121.283,93.62,120.873z"/>
	</g>
	<path fill="#010101" d="M110.675,175.329h67.361c0,0,7.567,0.334,11.919,4.686c4.355,4.355,4.419,11.787,4.419,11.787v27.453
		c0,0,0.139,6.967-5.222,11.787c-5.116,4.44-13.123,3.883-13.123,3.883l-63.88,0.267c0,0-6.698,0.27-11.922-4.821
		c-4.746-4.625-4.686-14.326-4.686-14.326v-24.513c0,0,1.204-8.302,4.286-11.382C103.712,175.997,110.675,175.329,110.675,175.329"
		/>
	<g>
		<path fill="#010101" d="M110.653,175.103c-0.288,0.028-7.094,0.725-10.992,4.892c-3.095,3.093-4.295,11.162-4.345,11.505
			l-0.002,24.545c-0.002,0.398-0.006,9.85,4.754,14.489c5.234,5.1,12.022,4.888,12.09,4.886l63.872-0.267
			c0.064,0.005,8.144,0.512,13.271-3.938c5.378-4.837,5.301-11.893,5.3-11.964v-27.448c-0.001-0.077-0.115-7.577-4.485-11.948
			c-4.364-4.363-11.993-4.748-12.07-4.752L110.653,175.103z M178.036,175.557c0.064,0.003,7.521,0.382,11.758,4.619
			c4.238,4.237,4.353,11.555,4.353,11.628v27.451c0.002,0.073,0.071,6.927-5.146,11.618c-4.98,4.323-12.876,3.83-12.955,3.825
			l-63.896,0.266c-0.074,0.003-6.673,0.203-11.763-4.757c-4.566-4.449-4.617-13.839-4.617-14.154c0-0.004,0-24.521,0-24.521
			c0.009-0.05,1.227-8.23,4.219-11.221c3.772-4.032,10.588-4.743,10.7-4.754C110.715,175.557,178.036,175.557,178.036,175.557z"/>
	</g>
	<path fill="#FEDF00" d="M124.201,197.023h41.38c0,0,3.347-0.401,5.361,1.609c2.007,2.008,1.602,2.675,1.602,2.675v7.368
		c0,0,0.071,1.141-1.602,2.813c-1.674,1.673-5.496,1.605-5.496,1.605h-41.782c0,0-3.281,0.067-5.222-1.875
		c-1.943-1.943-1.204-2.544-1.204-2.544v-7.232c0,0-0.135-0.938,1.604-2.679C120.584,197.023,124.201,197.023,124.201,197.023"/>
	<g>
		<path fill="#FEDF00" d="M165.554,196.798l-41.353-0.002c-0.151,0-3.731,0.021-5.52,1.808c-1.769,1.771-1.684,2.765-1.668,2.872
			l-0.002,7.2l0.084-0.177l-0.22,0.518c-0.031,0.604,0.442,1.399,1.407,2.364c1.987,1.987,5.25,1.944,5.388,1.941h41.777
			c0.156,0.003,3.935,0.049,5.657-1.672c1.726-1.726,1.671-2.938,1.667-2.989l0.001-7.354l-0.033,0.118
			c0.083-0.137,0.395-0.922-1.635-2.954C169.034,196.407,165.695,196.781,165.554,196.798z M165.581,197.251
			c0.06-0.006,3.29-0.364,5.201,1.543c1.774,1.775,1.561,2.406,1.559,2.413l-0.024,7.469c0.001,0.022,0.026,1.091-1.535,2.652
			c-1.585,1.585-5.294,1.54-5.331,1.539h-41.786c-0.037,0.001-3.213,0.041-5.062-1.809c-1.401-1.401-1.351-2.073-1.213-2.214
			l0.065-0.066l0.011-0.103v-7.232c-0.003-0.036-0.069-0.911,1.537-2.518c1.655-1.653,5.163-1.675,5.198-1.675H165.581z"/>
	</g>
	<path fill="#010101" d="M39.191,170.121l9.025,3.993c0.16,0.063,0.808,0.352,1.51,0.692l1.094,0.533l1.117,0.547l0.09-0.163
		c-1.014-0.583-1.407-0.828-2.103-1.279c-0.469-0.309-0.931-0.632-1.378-0.927l-8.116-5.642l1.772-3.204l9.094,3.865
		c0.508,0.185,1.018,0.422,1.521,0.675c0.753,0.345,1.167,0.551,2.201,1.098l0.091-0.164l-1.059-0.653l-1.014-0.682
		c-0.833-0.505-1.249-0.761-1.409-0.871l-8.185-5.517l1.59-2.877L59.33,169.95l-2.11,3.819l-7.737-3.35
		c-0.604-0.267-1.311-0.604-2.18-1.041c-0.808-0.401-1.193-0.611-2.211-1.13l-0.092,0.163c1.002,0.555,1.376,0.785,2.133,1.275
		c0.833,0.505,1.494,0.92,2.036,1.29l6.959,4.767l-2.11,3.819l-16.416-6.562L39.191,170.121z"/>
	<path fill="#010101" d="M46.914,156.139l4.304,1.172c0.611,0.149,1.385,0.459,2.319,0.882l0.069-0.128
		c-0.844-0.537-1.634-1.116-2-1.46l-3.263-3.056l1.639-2.97l7.21,7.833l6.519,3.603l-1.469,2.664l-6.519-3.603l-10.462-1.95
		L46.914,156.139z"/>
	<path fill="#010101" d="M54.996,153.535c-2.208-1.24-2.968-1.873-3.51-2.952c-0.545-1.08-0.455-2.451,0.277-3.773
		c0.737-1.339,1.768-2.096,3.063-2.276c1.121-0.114,2.135,0.209,4.373,1.396l2.618,1.399l2.558,1.461
		c2.197,1.261,2.958,1.893,3.51,2.955c0.554,1.112,0.455,2.451-0.293,3.812c-0.732,1.318-1.762,2.071-3.05,2.238
		c-1.105,0.143-2.125-0.181-4.368-1.399l-2.609-1.368L54.996,153.535z M58.948,152.224c1.746,0.963,3.076,1.674,4.16,2.224
		c0.333,0.16,0.659,0.271,0.965,0.32c0.531,0.149,1.007-0.057,1.236-0.477c0.378-0.686,0.041-1.275-1.05-1.975
		c-1.162-0.711-2.259-1.343-3.668-2.117l-1.083-0.601c-1.631-0.874-2.387-1.269-3.238-1.691c-1.19-0.564-1.847-0.525-2.229,0.16
		c-0.36,0.653-0.018,1.293,1.091,1.95C56.273,150.721,57.349,151.339,58.948,152.224"/>
	<path fill="#010101" d="M54.949,141.588l2.434-4.398l6.696,2.52c0.416,0.156,0.83,0.315,1.391,0.558
		c0.824,0.358,1.222,0.554,2.254,1.101l0.087-0.163c-1-0.601-1.375-0.831-2.125-1.339c-0.511-0.331-0.865-0.597-1.218-0.863
		l-5.686-4.345l2.419-4.384l15.359,8.483l-1.492,2.699l-9.244-5.108c-0.298-0.163-0.948-0.547-1.975-1.207
		c-0.437-0.267-1.142-0.704-2.069-1.236l-0.076,0.146l1.048,0.767c0.451,0.342,0.792,0.579,1.028,0.757
		c1.048,0.768,1.604,1.173,1.721,1.258l8.549,6.473l-1.222,2.206l-10.027-3.79c-0.213-0.068-0.89-0.349-1.986-0.785
		c-0.272-0.107-0.57-0.225-0.847-0.327l-1.558-0.604l-0.09,0.163c1.023,0.469,1.416,0.66,2.168,1.059
		c0.823,0.43,1.448,0.749,2.044,1.08l9.244,5.108l-1.471,2.66L54.949,141.588z"/>
	
		<rect x="68.966" y="122.759" transform="matrix(-0.4832 0.8755 -0.8755 -0.4832 219.765 133.3459)" fill="#010101" width="3.124" height="17.548"/>
	<path fill="#010101" d="M64.505,124.291l1.961-3.545l8.636,2.383c1.487,0.373,1.879,0.52,3.128,0.924l0.073-0.124
		c-1.194-0.564-2.284-1.098-2.881-1.428l-7.606-4.199l1.479-2.683l15.359,8.483l-1.95,3.531l-8.595-2.358
		c-0.78-0.195-1.405-0.377-2.048-0.565c-0.669-0.202-1.03-0.309-1.947-0.604l-0.083,0.146c0.913,0.358,1.25,0.501,1.931,0.781
		c0.648,0.288,1.211,0.576,1.791,0.892l7.581,4.192l-1.474,2.66L64.505,124.291z"/>
	<path fill="#010101" d="M87.522,119.563c-0.521,0.941-1.467,1.553-2.503,1.666c-1.288,0.117-2.19-0.267-6.771-2.792
		c-4.43-2.447-5.506-3.162-6.275-4.295c-0.76-1.083-0.698-2.657,0.149-4.195c1.405-2.536,3.551-3.052,6.32-1.521l1.17,0.646
		l-1.499,2.718l-1.236-0.686c-0.385-0.21-0.646-0.334-0.808-0.398c-0.698-0.245-1.334-0.099-1.646,0.462
		c-0.236,0.438-0.183,0.938,0.129,1.322c0.229,0.244,0.54,0.49,0.892,0.706c0.607,0.362,1.94,1.169,3.999,2.331
		c0.448,0.241,0.884,0.508,1.332,0.757c2.552,1.41,3.083,1.655,3.791,1.74c0.483,0.028,0.941-0.188,1.17-0.607
		c0.451-0.813,0.021-1.453-1.531-2.31l-1.575-0.873l-0.702,1.268l-2.513-1.389l2.181-3.947l8.243,4.555l-1.201,2.174l-1.236-0.33
		C88.026,117.595,88.063,118.586,87.522,119.563"/>
	<path fill="#010101" d="M94.527,246.939h4.304c1.655,0,2.607,0.341,3.371,1.189c0.539,0.583,0.871,1.39,0.933,2.264
		c0.021,0.099,0.064,1.801,0.206,5.065c0.023,0.632,0.023,1.265,0.023,1.918c0,3.727-0.187,4.65-1.055,5.844
		c-0.624,0.828-1.762,1.265-3.27,1.265h-4.512V246.939z M97.63,261.664h0.767c0.764,0,1.201-0.195,1.448-0.682
		c0.354-0.657,0.393-1.219,0.393-5.624c0-3.603-0.083-4.38-0.455-4.966c-0.167-0.242-0.371-0.438-0.622-0.512
		c-0.185-0.075-0.414-0.096-0.684-0.096H97.63V261.664z"/>
	<polygon fill="#010101" points="105.018,246.939 112.382,246.939 112.382,249.931 108.117,249.931 108.117,254.069 
		111.948,254.069 111.948,257.039 108.117,257.039 108.117,261.543 112.757,261.543 112.757,264.484 105.018,264.484 	"/>
	<path fill="#010101" d="M113.869,246.939h3.973c1.593,0,2.4,0.217,3.125,0.777c0.972,0.778,1.343,2.043,1.343,4.817
		c0,3.531-1.055,4.87-3.783,4.87h-1.537v7.08h-3.121V246.939z M116.972,254.627h0.787c1.199,0,1.553-0.533,1.553-2.459
		c0-1.971-0.375-2.529-1.576-2.529h-0.764V254.627z"/>
	<path fill="#010101" d="M124.684,246.939h4.242l3.103,17.545h-3.311l-0.498-3.502h-2.834l-0.494,3.502h-3.314L124.684,246.939z
		 M125.862,258.037h1.863l-0.583-4.65c-0.08-0.707-0.101-0.898-0.123-1.193c-0.062-0.653-0.08-1.095-0.163-2.117h-0.107
		c-0.062,1.069-0.08,1.51-0.163,2.117c-0.021,0.27-0.063,0.562-0.146,1.193L125.862,258.037z"/>
	<path fill="#010101" d="M132.81,246.939h4.714c1.385,0,2.178,0.241,2.817,0.777c0.828,0.679,1.261,2.089,1.261,4.039
		c0,2.264-0.64,3.432-2.007,3.677c1.304,0.217,1.926,1.364,1.926,3.624v3.386c0,0.753,0.06,1.265,0.266,2.042h-3.247
		c-0.146-0.703-0.185-1.119-0.185-1.918v-3.045c0-1.851-0.355-2.437-1.574-2.437h-0.851v7.399h-3.121V246.939z M135.931,254.36
		h0.915c1.137,0,1.51-0.583,1.51-2.263c0-1.852-0.334-2.438-1.449-2.438h-0.975V254.36z"/>
	<polygon fill="#010101" points="142.264,246.939 151.574,246.939 151.574,249.931 148.49,249.931 148.49,264.484 145.368,264.484 
		145.368,249.931 142.264,249.931 	"/>
	<path fill="#010101" d="M152.377,246.939h5.026l1.034,7.08c0.064,0.44,0.124,0.877,0.185,1.484c0.086,0.902,0.106,1.34,0.128,2.508
		h0.185c0.043-1.168,0.064-1.605,0.146-2.508c0.043-0.607,0.104-1.044,0.164-1.484l1.055-7.08h5.006v17.545h-3.08v-10.562
		c0-0.341,0.021-1.098,0.103-2.313c0.021-0.512,0.061-1.335,0.086-2.412h-0.167l-0.167,1.293c-0.078,0.562-0.125,0.971-0.164,1.265
		c-0.167,1.29-0.248,1.972-0.27,2.118l-1.531,10.61h-2.522l-1.534-10.61c-0.039-0.217-0.121-0.949-0.267-2.118
		c-0.043-0.294-0.085-0.61-0.124-0.902l-0.231-1.655h-0.185c0.085,1.123,0.106,1.56,0.124,2.412
		c0.021,0.924,0.043,1.631,0.043,2.313v10.562h-3.041V246.939z"/>
	<polygon fill="#010101" points="167.148,246.939 174.513,246.939 174.513,249.931 170.249,249.931 170.249,254.069 
		174.079,254.069 174.079,257.039 170.249,257.039 170.249,261.543 174.886,261.543 174.886,264.484 167.148,264.484 	"/>
	<path fill="#010101" d="M175.997,246.939h4.057l2.093,8.71c0.391,1.485,0.455,1.901,0.7,3.19h0.146
		c-0.082-1.314-0.146-2.533-0.146-3.211v-8.689h3.062v17.545h-4.031l-2.093-8.664c-0.206-0.778-0.348-1.41-0.494-2.071
		c-0.146-0.679-0.23-1.041-0.415-1.993h-0.164c0.125,0.974,0.164,1.34,0.249,2.068c0.061,0.71,0.082,1.339,0.082,1.996v8.664h-3.045
		V246.939z"/>
	<polygon fill="#010101" points="186.715,246.939 196.026,246.939 196.026,249.931 192.942,249.931 192.942,264.484 
		189.816,264.484 189.816,249.931 186.715,249.931 	"/>
	<polygon fill="#010101" points="204.74,87.452 209.216,95.612 206.595,97.055 205.109,94.351 192.356,101.346 190.854,98.606 
		203.606,91.612 202.115,88.891 	"/>
	<path fill="#010101" d="M209.604,96.319l2.27,4.135c0.665,1.215,0.832,2.018,0.668,2.842c-0.198,1.052-1.226,2.11-2.931,3.048
		c-1.982,1.087-3.317,1.087-4.188,0.008c0.438,1.246-0.267,2.337-2.252,3.428l-2.963,1.623c-0.664,0.366-1.08,0.668-1.662,1.219
		l-1.563-2.842c0.547-0.473,0.892-0.703,1.595-1.091l2.668-1.46c1.62-0.892,1.965-1.481,1.379-2.551l-0.412-0.742l-6.483,3.553
		l-1.503-2.739L209.604,96.319z M204.602,102.625l0.437,0.799c0.548,0.995,1.24,1.045,2.707,0.234
		c1.624-0.892,1.979-1.456,1.439-2.44l-0.466-0.849L204.602,102.625z"/>
	<path fill="#010101" d="M215.643,107.324l2.039,3.72l-13.887,11.154l-1.591-2.902l2.834-2.12l-1.363-2.483l-3.312,1.247
		l-1.591-2.902L215.643,107.324z M206.484,113.69l0.896,1.634l3.794-2.742c0.579-0.412,0.738-0.522,0.987-0.679
		c0.544-0.373,0.92-0.601,1.772-1.165l-0.05-0.092c-0.962,0.461-1.36,0.656-1.933,0.873c-0.245,0.11-0.521,0.217-1.115,0.448
		L206.484,113.69z"/>
	<path fill="#010101" d="M219.55,114.447l1.951,3.556l-6.633,6.021c-1.108,1.059-1.442,1.311-2.455,2.149l0.071,0.128
		c1.112-0.707,2.149-1.347,2.746-1.673l7.613-4.178l1.474,2.686l-15.378,8.434l-1.94-3.535l6.587-6
		c0.586-0.554,1.069-0.984,1.573-1.428c0.529-0.455,0.811-0.704,1.553-1.322l-0.078-0.146c-0.796,0.579-1.094,0.792-1.694,1.212
		c-0.59,0.395-1.137,0.718-1.709,1.033l-7.595,4.167l-1.461-2.668L219.55,114.447z"/>
	<path fill="#010101" d="M224.033,131.57c0.341-0.186,0.579-0.362,0.718-0.462c0.601-0.423,0.731-1.041,0.423-1.603
		c-0.405-0.742-1.158-0.849-2.143-0.313c-0.87,0.479-1.137,0.909-1.445,2.515l-0.423,1.865c-0.103,0.522-0.245,1.169-0.358,1.518
		c-0.47,1.673-1.18,2.554-2.693,3.385c-2.816,1.546-5.215,1.02-6.564-1.449c-0.668-1.215-0.839-2.533-0.522-3.677
		c0.316-1.044,1.063-1.808,2.618-2.661l1.343-0.738l1.506,2.738l-1.367,0.75c-1.236,0.679-1.638,1.417-1.201,2.213
		c0.42,0.761,1.312,0.867,2.377,0.281c0.508-0.281,0.867-0.594,1.065-0.938c0.188-0.315,0.352-0.973,0.487-1.591l0.387-2.028
		c0.082-0.402,0.238-1.027,0.369-1.45c0.455-1.599,1.077-2.384,2.658-3.25c2.728-1.499,4.756-0.984,6.159,1.57
		c1.371,2.504,0.761,4.423-1.861,5.861l-1.087,0.597l-1.425-2.593L224.033,131.57z"/>
	<path fill="#010101" d="M230.065,133.616l1.911,3.481c0.764,1.396,0.967,2.21,0.82,3.112c-0.216,1.226-1.146,2.163-3.577,3.495
		c-3.09,1.698-4.771,1.417-6.085-0.977l-0.739-1.343l-6.206,3.406l-1.503-2.739L230.065,133.616z M224.818,140.032l0.38,0.692
		c0.576,1.052,1.216,1.102,2.899,0.178c1.727-0.948,2.039-1.546,1.46-2.597l-0.366-0.672L224.818,140.032z"/>
	<path fill="#010101" d="M229.504,144.679c2.231-1.197,3.173-1.503,4.373-1.386c1.205,0.117,2.313,0.927,3.038,2.252
		c0.738,1.34,0.824,2.615,0.287,3.809c-0.504,1.005-1.321,1.691-3.517,2.941l-2.583,1.464l-2.604,1.382
		c-2.234,1.18-3.18,1.484-4.37,1.382c-1.235-0.124-2.315-0.928-3.062-2.284c-0.725-1.325-0.813-2.601-0.263-3.772
		c0.472-1.017,1.285-1.698,3.517-2.941l2.554-1.471L229.504,144.679z M228.503,148.721c-1.748,0.96-3.063,1.702-4.107,2.324
		c-0.313,0.191-0.582,0.411-0.785,0.643c-0.412,0.362-0.486,0.881-0.259,1.3c0.38,0.686,1.059,0.711,2.228,0.167
		c1.226-0.6,2.348-1.189,3.751-1.964l1.087-0.597c1.616-0.906,2.352-1.336,3.162-1.826c1.111-0.707,1.432-1.282,1.055-1.972
		c-0.355-0.65-1.08-0.707-2.23-0.121C231.199,147.265,230.104,147.844,228.503,148.721"/>
	<path fill="#010101" d="M239.607,151.006l2.27,4.135c0.665,1.215,0.828,2.018,0.668,2.842c-0.198,1.052-1.229,2.11-2.931,3.044
		c-1.985,1.091-3.317,1.088-4.188,0.008c0.434,1.247-0.27,2.341-2.256,3.428l-2.959,1.627c-0.664,0.366-1.08,0.661-1.662,1.219
		l-1.566-2.85c0.55-0.465,0.892-0.696,1.599-1.087l2.667-1.46c1.617-0.888,1.958-1.478,1.375-2.547l-0.408-0.742l-6.483,3.552
		l-1.503-2.738L239.607,151.006z M234.605,157.308l0.438,0.799c0.547,0.998,1.239,1.045,2.706,0.238
		c1.624-0.892,1.976-1.464,1.439-2.44l-0.469-0.853L234.605,157.308z"/>
	<polygon fill="#010101" points="244.154,159.29 248.631,167.449 246.005,168.892 244.524,166.188 231.771,173.184 230.268,170.444 
		243.021,163.449 241.525,160.729 	"/>
	<path fill="#010101" d="M249.295,168.657l2.039,3.72l-13.89,11.154l-1.588-2.902l2.831-2.12l-1.36-2.483l-3.312,1.25l-1.595-2.902
		L249.295,168.657z M240.133,175.027l0.896,1.634l3.798-2.742c0.579-0.412,0.738-0.526,0.983-0.686
		c0.548-0.37,0.921-0.598,1.776-1.158l-0.05-0.093c-0.966,0.458-1.36,0.65-1.936,0.87c-0.242,0.11-0.519,0.217-1.115,0.448
		L240.133,175.027z"/>
	<polygon fill="#010101" points="252.016,173.62 256.492,181.78 253.867,183.219 252.386,180.516 239.632,187.511 238.13,184.771 
		250.883,177.776 249.391,175.056 	"/>
	
		<rect x="248.379" y="179.3" transform="matrix(-0.481 -0.8767 0.8767 -0.481 205.2851 497.6611)" fill="#010101" width="3.124" height="17.539"/>
	<path fill="#010101" d="M254.126,189.557c2.228-1.197,3.169-1.503,4.373-1.382c1.204,0.12,2.316,0.927,3.038,2.252
		c0.735,1.343,0.827,2.614,0.287,3.805c-0.501,1.006-1.317,1.691-3.517,2.941l-2.583,1.467l-2.601,1.379
		c-2.237,1.18-3.183,1.484-4.376,1.382c-1.233-0.124-2.31-0.924-3.056-2.284c-0.728-1.325-0.816-2.597-0.266-3.772
		c0.469-1.013,1.289-1.694,3.517-2.941l2.551-1.471L254.126,189.557z M253.124,193.6c-1.747,0.959-3.059,1.701-4.106,2.323
		c-0.309,0.191-0.579,0.415-0.785,0.643c-0.408,0.369-0.49,0.881-0.259,1.3c0.376,0.687,1.059,0.715,2.23,0.167
		c1.226-0.6,2.341-1.189,3.748-1.961l1.087-0.597c1.613-0.909,2.352-1.335,3.162-1.825c1.115-0.707,1.435-1.286,1.055-1.972
		c-0.355-0.654-1.08-0.707-2.228-0.125C255.824,192.143,254.723,192.722,253.124,193.6"/>
	<path fill="#010101" d="M264.229,195.884l1.95,3.552l-6.633,6.021c-1.108,1.059-1.442,1.314-2.454,2.149l0.067,0.128
		c1.115-0.707,2.152-1.347,2.749-1.67l7.613-4.181l1.475,2.686l-15.383,8.437l-1.939-3.538l6.59-5.996
		c0.583-0.555,1.069-0.988,1.574-1.432c0.529-0.455,0.806-0.7,1.549-1.318l-0.078-0.146c-0.793,0.572-1.091,0.789-1.691,1.211
		c-0.59,0.392-1.137,0.715-1.712,1.03l-7.592,4.167l-1.464-2.667L264.229,195.884z"/>
</g>
<rect id="_x3C_Slice_x3E__2_" fill="none" width="288" height="288"/>
</svg>
